<svg xmlns="http://www.w3.org/2000/svg" viewBox="0 0 60 60.988">
  <g id="around" transform="translate(-4.147 0)">
    <g id="Group_1058" data-name="Group 1058" transform="translate(4.147 0)">
      <g id="Group_1057" data-name="Group 1057" transform="translate(0 0)">
        <path id="Path_52" data-name="Path 52" d="M62.763,21.035A29.991,29.991,0,0,0,5.519,38.953l1.939-.607a27.96,27.96,0,1,1,3.226,6.863l-1.7,1.105A30.1,30.1,0,0,0,34.2,59.975,29.981,29.981,0,0,0,62.763,21.035Z" transform="translate(-4.147 0)"/>
      </g>
    </g>
    <g id="Group_1060" data-name="Group 1060" transform="translate(15.337 9.186)">
      <g id="Group_1059" data-name="Group 1059">
        <path id="Path_53" data-name="Path 53" d="M111.007,82.155l.583-1.947-10.16-3.048a1.015,1.015,0,0,0-1.01.255l-2.032,2.032a1.016,1.016,0,0,0,.306,1.647l9.144,4.064.825-1.857-7.791-3.463.557-.557Z" transform="translate(-98.092 -77.117)"/>
      </g>
    </g>
    <g id="Group_1062" data-name="Group 1062" transform="translate(15.338 7.156)">
      <g id="Group_1061" data-name="Group 1061">
        <path id="Path_54" data-name="Path 54" d="M120.447,61.088a1.016,1.016,0,0,0-1.016-1.016h0a8.315,8.315,0,0,0-5.918,2.452L104.9,71.138l-3.506-.877a1.016,1.016,0,0,0-.965.267L98.393,72.56a1.015,1.015,0,0,0,.2,1.589l4.862,2.918,2.918,4.862a1.015,1.015,0,0,0,.747.486,1,1,0,0,0,.124.007,1.024,1.024,0,0,0,.719-.3l2.032-2.032a1.018,1.018,0,0,0,.267-.965l-.876-3.5,8.752-8.666A8.382,8.382,0,0,0,120.447,61.088Zm-12.908,13.5a1.016,1.016,0,0,0-.271.968l.877,3.506-.705.705L105.061,75.8a1.012,1.012,0,0,0-.348-.348l-3.964-2.378.705-.705,3.506.877a1.016,1.016,0,0,0,.965-.267l9.022-9.022a6.285,6.285,0,0,1,3.387-1.763,6.264,6.264,0,0,1-1.651,3.339Z" transform="translate(-98.094 -60.072)"/>
      </g>
    </g>
    <g id="Group_1064" data-name="Group 1064" transform="translate(27.612 16.01)">
      <g id="Group_1063" data-name="Group 1063">
        <path id="Path_55" data-name="Path 55" d="M209.141,144.695,206.093,134.4l-1.949.577,2.864,9.67-.617.545L203,137.337l-1.866.8,3.942,9.144a1.017,1.017,0,0,0,.711.589,1.04,1.04,0,0,0,.223.024,1.013,1.013,0,0,0,.672-.254l2.154-1.9A1.017,1.017,0,0,0,209.141,144.695Z" transform="translate(-201.138 -134.403)"/>
      </g>
    </g>
    <g id="Group_1066" data-name="Group 1066" transform="translate(4.197 24.782)">
      <g id="Group_1065" data-name="Group 1065" transform="translate(0)">
        <path id="Path_56" data-name="Path 56" d="M23.866,239.281c-7.236,3.429-12.912,3.872-15.569,1.215-4.606-4.606.4-17.989,11.636-31.132l-1.544-1.321C6.061,222.457,1.319,236.393,6.859,241.932A8.77,8.77,0,0,0,13.3,244.25c3.16,0,7.032-1.047,11.434-3.133Z" transform="translate(-4.565 -208.043)"/>
      </g>
    </g>
    <g id="Group_1068" data-name="Group 1068" transform="translate(38.705 28.49)">
      <g id="Group_1067" data-name="Group 1067">
        <path id="Path_57" data-name="Path 57" d="M313.451,245.805a1.016,1.016,0,0,0-.9-.536h-3.436l-2.767-5.534a1.017,1.017,0,0,0-.909-.562h-10.16a1.016,1.016,0,0,0-1.016,1.016v8.128a1.015,1.015,0,0,0,1.016,1.016h3.048v11.176a1.015,1.015,0,0,0,1.016,1.016h5.08a1.016,1.016,0,0,0,.719-.3l4.064-4.064a1.012,1.012,0,0,0,.3-.718v-3.756l3.893-5.84A1.016,1.016,0,0,0,313.451,245.805Zm-5.806,6.011a1.021,1.021,0,0,0-.171.564v3.643l-3.468,3.468h-3.644V248.317a1.015,1.015,0,0,0-1.016-1.016H296.3v-6.1h8.516l2.767,5.534a1.017,1.017,0,0,0,.909.562h2.166Z" transform="translate(-294.267 -239.173)"/>
      </g>
    </g>
    <g id="Group_1070" data-name="Group 1070" transform="translate(40.737 11.219)">
      <g id="Group_1069" data-name="Group 1069">
        <path id="Path_58" data-name="Path 58" d="M329.187,109.418l-3.771-6.6a1.016,1.016,0,0,0-.882-.512h-6.1a1.017,1.017,0,0,0-.845.452l-1.73,2.6h-2.5v-5.08h5.08a1.013,1.013,0,0,0,.718-.3l3.766-3.766h4.659V94.179H322.5a1.013,1.013,0,0,0-.718.3l-3.766,3.766h-5.675a1.016,1.016,0,0,0-1.016,1.016v7.112a1.016,1.016,0,0,0,1.016,1.016h4.064a1.017,1.017,0,0,0,.845-.452l1.73-2.6h4.963l3.771,6.6a1.016,1.016,0,0,0,.882.512h4.064v-2.032h-3.475Z" transform="translate(-311.327 -94.179)"/>
      </g>
    </g>
    <g id="Group_1072" data-name="Group 1072" transform="translate(18.386 33.57)">
      <g id="Group_1071" data-name="Group 1071" transform="translate(0)">
        <path id="Path_59" data-name="Path 59" d="M138.926,284.867h-5.675l-2.75-2.75a1.013,1.013,0,0,0-.718-.3H124.7a1.016,1.016,0,0,0-1.016,1.016v7.112a1.016,1.016,0,0,0,1.016,1.016h4.064v10.16a1.016,1.016,0,0,0,1.626.813l4.064-3.048a1.017,1.017,0,0,0,.406-.813v-2.56l4.7-3.758a1.016,1.016,0,0,0,.381-.793v-5.08A1.016,1.016,0,0,0,138.926,284.867Zm-1.016,5.608-4.7,3.758a1.017,1.017,0,0,0-.381.793v2.54L130.8,299.09v-9.144a1.016,1.016,0,0,0-1.016-1.016h-4.064v-5.08h3.643l2.75,2.75a1.014,1.014,0,0,0,.718.3h5.08Z" transform="translate(-123.687 -281.819)"/>
      </g>
    </g>
    <g id="Group_1074" data-name="Group 1074" transform="translate(5.179 16.298)">
      <g id="Group_1073" data-name="Group 1073" transform="translate(0)">
        <path id="Path_60" data-name="Path 60" d="M20.79,142.4l-3.048-5.08a1.015,1.015,0,0,0-.871-.493H15.856v2.032H16.3l2.344,3.906-2.487,2.487a1.013,1.013,0,0,0-.3.718v3.048H12.808v2.032h4.064a1.016,1.016,0,0,0,1.016-1.016v-3.643l2.75-2.75A1.017,1.017,0,0,0,20.79,142.4Z" transform="translate(-12.808 -136.825)"/>
      </g>
    </g>
    <g id="Group_1076" data-name="Group 1076" transform="translate(23.012 1.059)">
      <g id="Group_1075" data-name="Group 1075">
        <path id="Path_61" data-name="Path 61" d="M175.166,8.889v1.239l-3.295.824a1.033,1.033,0,0,0-.317.14L169,12.8l-5.568-2.785-.909,1.817,6.1,3.048a1.016,1.016,0,0,0,1.017-.064l2.9-1.934,3.894-.973a1.016,1.016,0,0,0,.77-.985V8.889Z" transform="translate(-162.519 -8.889)"/>
      </g>
    </g>
  </g>
</svg>
